<?xml version="1.0" encoding="UTF-8"?>
<!DOCTYPE svg PUBLIC "-//W3C//DTD SVG 1.1//EN" "http://www.w3.org/Graphics/SVG/1.1/DTD/svg11.dtd">
<!-- Creator: CorelDRAW X8 -->
<svg xmlns="http://www.w3.org/2000/svg" xml:space="preserve" width="1100px" height="400px" version="1.1" shape-rendering="geometricPrecision" text-rendering="geometricPrecision" image-rendering="optimizeQuality" fill-rule="evenodd" clip-rule="evenodd"
viewBox="0 0 1355755 492820"
 xmlns:xlink="http://www.w3.org/1999/xlink">
 <g id="Layer_x0020_1">
  <metadata id="CorelCorpID_0Corel-Layer"/>
  <polygon fill="#1362E2" points="0,369614 0,369615 0,369615 0,369616 1,369616 213398,492820 426795,369616 426796,369616 426795,369615 426795,123206 213398,0 0,123206 "/>
  <path id="Shape" fill="#2E2E2E" d="M588502 184809c18758,0 34551,5176 46398,16565 11847,11390 17772,25883 17772,44521 0,18634 -5925,33127 -17772,44516 -11847,11389 -27640,17602 -46398,17602l-38502 0 0 -123204 38502 0zm767253 0l0 22778 -39014 0 0 100426 -24641 0 0 -100426 -39014 0 0 -22778 102669 0zm-172897 0l0 123204 -20535 0 0 -123204 20535 0zm-180186 123204l-23923 0 0 -123204 23923 0 0 56941 44858 -56941 28905 0 -45851 57977 50838 65227 -28910 0 -50833 -64191 0 64191 993 0zm-122593 -121202l28037 0 -49837 121202 -8308 0 -34260 -74124 -34261 74124 -8308 0 -49832 -121202 28032 0 26992 70116 32185 -72118 8308 0 32184 72118 29068 -70116zm-306385 20776l0 77648 13822 0c11847,0 21719,-3105 28630,-10354 6907,-7244 10857,-16565 10857,-28986 0,-23815 -15793,-38308 -39487,-38308l-13822 0z"/>
  <path fill="white" d="M217584 250035l0 123205 106698 -61602 0 -123205 -106698 61602zm-4186 -7250l-106699 -61603 106699 -61602 106698 61602 -106698 61603zm-4186 7250l0 123205 -106699 -61602 0 -123205 106699 61602z"/>
 </g>
</svg>
