<svg width="60" height="60" viewBox="0 0 60 60" fill="none" xmlns="http://www.w3.org/2000/svg">
					<circle cx="30" cy="30" r="30" fill="#C4C4C4"/>
					<path d="M21.1719 35.2344C24.2448 33.9844 27.1875 33.3594 30 33.3594C32.8125 33.3594 35.7292 33.9844 38.75 35.2344C41.8229 36.4323 43.3594 38.0208 43.3594 40V43.3594H16.6406V40C16.6406 38.0208 18.151 36.4323 21.1719 35.2344ZM34.6875 28.0469C33.3854 29.349 31.8229 30 30 30C28.1771 30 26.6146 29.349 25.3125 28.0469C24.0104 26.7448 23.3594 25.1823 23.3594 23.3594C23.3594 21.5365 24.0104 19.974 25.3125 18.6719C26.6146 17.3177 28.1771 16.6406 30 16.6406C31.8229 16.6406 33.3854 17.3177 34.6875 18.6719C35.9896 19.974 36.6406 21.5365 36.6406 23.3594C36.6406 25.1823 35.9896 26.7448 34.6875 28.0469Z" fill="#1253CC"/>
					</svg>