<?xml version="1.0"?>
<svg xmlns="http://www.w3.org/2000/svg" width="50" height="50" viewBox="0 0 50 50">
    <path d="M 25 0 C 24.74425 0 24.47675 0.08575 24.28125 0.28125 L 17.28125 7.28125 C 16.99525 7.56725 16.9075 8.001 17.0625 8.375 C 17.2175 8.748 17.596 9 18 9 L 32 9 L 32.03125 9 C 32.58325 9 33.03125 8.552 33.03125 8 C 33.03125 7.663 32.84875 7.3685 32.59375 7.1875 L 25.71875 0.28125 C 25.52325 0.08575 25.25575 0 25 0 z M 2 13 L 2 17 L 48 17 L 48 13 L 2 13 z M 2 23 L 2 27 L 48 27 L 48 23 L 2 23 z M 2 33 L 2 37 L 48 37 L 48 33 L 2 33 z M 18 41 C 17.596 41 17.2175 41.251 17.0625 41.625 C 16.9075 41.999 16.99525 42.43275 17.28125 42.71875 L 24.28125 49.71875 C 24.47625 49.91375 24.744 50 25 50 C 25.256 50 25.52375 49.91375 25.71875 49.71875 L 32.71875 42.71875 C 33.00475 42.43275 33.0925 41.999 32.9375 41.625 C 32.7835 41.251 32.404 41 32 41 L 18 41 z"/>
</svg>
